<?xml version="1.0" encoding="utf-8" ?>
<svg xmlns="http://www.w3.org/2000/svg" xmlns:xlink="http://www.w3.org/1999/xlink" width="500" height="500">
	<path fill="#103F48" d="M259.804 294.143L266.305 294.07L251.54 325.757L243.439 307.336C243.057 305.948 242.116 304.391 241.501 303.069L237.596 294.401C237.968 294.164 238.599 294.245 239.051 294.226C240.902 294.15 242.703 294.141 244.556 294.265L251.56 312.642L258.945 294.375L259.804 294.143Z"/>
	<path fill="#103F48" d="M314.999 294.108L317.475 294.139C319.331 298.07 322.149 301.838 324.357 305.628L331.17 294.274C333.762 293.9 336.455 294.05 339.07 294.065L329.8 308.386L327.987 311.125C327.768 311.444 327.567 311.675 327.52 312.076C327.364 313.391 327.569 314.915 327.578 316.25L327.529 323.957L321.007 323.957C320.707 321.09 320.815 318.16 320.856 315.28C320.87 314.264 321.124 312.204 320.779 311.307C320.398 310.315 319.027 308.889 318.374 307.984C315.446 303.927 311.729 299.218 310.142 294.461C311.696 294.178 313.416 294.204 314.999 294.108Z"/>
	<path fill="#103F48" d="M186.265 293.34C189.727 293.117 193.715 293.952 196.955 295.077L194.759 300.696L194.366 300.553C191.764 299.626 188.081 298.2 185.5 299.739C184.815 300.147 184.675 300.508 184.507 301.25C186.188 305.159 190.673 306.016 193.875 308.297C196.073 309.863 198.018 312.062 198.374 314.814C198.678 317.168 197.846 319.684 196.303 321.482C194.283 323.835 191.549 324.428 188.598 324.571C184.469 324.522 181.37 324.074 177.441 322.837C177.422 321.1 178.609 318.723 179.216 317.102L182.746 318.322L183.448 318.559C185.272 319.084 189.241 319.045 190.904 318.156C191.433 317.245 191.535 316.674 191.493 315.625C190.983 314.278 189.575 313.581 188.399 312.892C185.99 311.481 183.442 310.338 181.201 308.653C179.471 307.352 178.058 305.291 177.77 303.116C177.469 300.835 178.069 298.527 179.505 296.708C181.324 294.404 183.461 293.743 186.265 293.34Z"/>
	<path fill="#103F48" d="M218.401 293.272C221.366 297.554 223.133 302.329 225.244 307.048L232.82 323.738L225.728 323.723C225.222 322.683 225.062 321.011 224.901 319.864L218.492 319.794L212.06 319.916L211.433 323.83L204.12 323.976C205.449 319.739 207.63 315.541 209.48 311.5C212.308 305.32 215.04 299.185 218.401 293.272ZM218.245 305.875L214.513 315.046L218.706 314.814L222.196 314.822C220.946 312.058 219.595 308.941 218.803 306.012L218.245 305.875Z"/>
	<path fill="#86C60E" d="M233.555 194.859L268.875 195.099C267.182 199.17 264.541 202.495 261.339 205.482L260.203 206.365C256.797 208.744 250.862 210.339 246.758 209.531C238.692 207.943 233.537 201.48 229.167 195.069L233.555 194.859Z"/>
	<path fill="#86C60E" d="M215.58 235.789C218.382 235.658 220.475 235.976 222.906 237.428C225.878 239.201 228.109 242.522 228.88 245.867C229.553 248.786 228.844 252.186 227.216 254.672C225.195 257.76 221.846 259.626 218.322 260.414C215.957 260.543 213.709 260.35 211.596 259.21C208.229 257.394 206.097 254.863 205.025 251.182L204.914 250.792L204.694 250.026C204.045 247.322 204.79 244.129 206.262 241.806C208.433 238.38 211.723 236.655 215.58 235.789Z"/>
	<path fill="#103F48" d="M286.462 293.357C288.112 293.216 290.595 293.459 292.2 293.876C296.234 294.924 299.92 297.549 301.944 301.197C303.835 304.603 304.322 309.62 303.139 313.357L303.01 313.75C302.582 315.123 302.065 316.375 301.295 317.594C298.46 322.078 294.934 323.437 289.927 324.524C288.077 324.599 285.988 324.701 284.171 324.335L283.875 324.271L281.984 323.806C278.402 322.677 275.367 319.686 273.684 316.394C271.68 312.476 271.432 307.726 272.857 303.584L272.976 303.25C273.514 301.7 274.267 300.232 275.31 298.959C278.279 295.333 281.903 293.85 286.462 293.357ZM285.437 299.524C282.601 300.56 280.754 301.608 279.431 304.466C278.287 306.938 278.059 310.232 279.04 312.807C279.897 315.056 281.353 316.686 283.565 317.647C285.28 318.392 287.991 318.999 289.803 318.299C292.506 317.245 295.302 315.818 296.507 313C296.648 312.668 296.702 312.348 296.778 312L296.844 311.731C297.263 309.879 297.08 307.758 296.596 305.944L296.508 305.586C295.992 303.561 294.534 301.695 292.699 300.678C290.298 299.347 288.129 299.311 285.437 299.524Z"/>
	<path fill="#103F48" d="M204.055 179.125L204.86 179.125C208.402 182.812 211.687 186.821 215.423 190.306C218.565 193.238 222.359 195.448 225.138 198.766C226.286 200.137 227 201.778 227.46 203.498C228.285 206.576 227.792 210.346 226.18 213.075L226 213.375C225.713 213.869 225.431 214.305 225.077 214.758C223.99 216.15 222.854 217.204 221.211 217.927C218.978 218.908 216.257 218.982 213.875 219.285L206.313 220.441C205.801 220.385 205.419 220.298 205.017 219.965C203.812 218.963 202.472 216.804 202.5 215.193C202.511 214.508 202.794 213.562 203.327 213.102C203.691 212.787 203.633 212.816 203.766 212.375L188.002 190.507C188.423 189.8 189.306 189.2 189.936 188.662L194.222 185.047L192.171 182.475L194.479 179.583L197.365 182.526L204.055 179.125ZM214.273 202.039C213.161 202.716 211.721 203.415 211.342 204.77C210.984 206.056 211.648 207.781 212.356 208.847C213.006 209.825 214.166 210.617 215.375 210.671C215.747 210.687 215.819 210.636 216.125 210.529C217.416 209.937 218.345 208.979 218.802 207.612C219.165 206.527 219.388 205.491 218.838 204.428C218.321 203.431 217.416 202.401 216.325 202.017C215.759 201.818 215.135 201.968 214.558 202.021L214.273 202.039Z"/>
	<path fill="#103F48" d="M213.345 223.566C215.347 223.45 217.551 223.404 219.538 223.68L220 223.746C223.094 224.167 225.809 225.084 228.447 226.789L228.75 226.988C231.48 228.753 233.901 230.876 235.805 233.534C239.817 239.134 241.098 244.135 240.007 250.997L233.298 247.255L232.134 242.337C230.85 238.441 227.489 235.161 223.843 233.436C219.408 231.338 214.755 231.337 210.212 233.056C206.615 234.416 203.343 237.57 201.811 241.117L201.672 241.451C200.422 244.384 199.991 247.672 200.601 250.817C201.431 255.098 204.23 259.491 207.948 261.82C211.761 264.209 216.634 264.774 220.947 263.732C221.924 263.523 222.975 263.189 223.875 262.745C228.581 260.426 230.723 256.547 232.266 251.743C232.971 251.919 233.877 252.796 234.499 253.223L239.974 256.906C238.136 260.561 236.009 263.905 232.791 266.514C227.402 270.882 220.008 272.855 213.125 272.013C207.343 271.305 200.974 267.736 197.413 263.144C193.777 258.455 191.876 251.355 192.657 245.476L192.723 245C193.032 242.646 193.595 240.186 194.61 238.024C197.445 231.988 201.579 227.283 208.027 225.032C209.805 224.412 211.493 223.929 213.345 223.566Z"/>
	<path fill="#86C60E" d="M203.914 149.397L218.087 151.681C227.041 153.098 237.795 155.25 243.552 162.976C248.841 170.074 248.399 180.496 247.293 188.805C244.067 185.822 241.64 181.995 238.813 178.644C234.538 173.578 229.56 169.75 224.167 165.982C223.716 165.696 223.425 165.449 222.875 165.469C223.162 166.69 225.268 167.989 226.203 168.853C227.455 170.01 228.67 171.213 229.807 172.483C234.883 178.15 239.714 184.587 242.813 191.556C233.028 191.468 222.512 191.413 214.998 184.179C209.957 179.327 207.67 172.722 206.089 166.066C204.769 160.507 204.016 155.111 203.914 149.397Z"/>
	<path fill="#86C60E" d="M293.293 149.603L296.03 149.522L295.94 151.907C295.307 163.619 292.665 177.333 283.475 185.43C276.44 191.628 266.05 191.769 257.207 191.24C260.129 184.339 264.641 178.652 269.743 173.234L274.819 168.113C275.457 167.518 277.219 166.286 277.589 165.585C277.7 165.375 277.634 165.112 277.657 164.875L277.399 164.86C275.942 164.978 273.86 166.987 272.703 167.915C270.056 170.038 267.296 172.11 264.85 174.467C260.144 179.004 256.279 184.168 252.105 189.163L251.869 187.144C251.163 179.326 251.577 168.87 256.874 162.609C265.384 152.552 280.989 150.71 293.293 149.603Z"/>
	<path fill="#103F48" d="M281.192 223.349C286.795 223.501 292.251 224.668 296.804 228.123C302.173 232.199 305.08 238.369 305.978 244.92C306.757 250.6 304.768 258.353 301.234 262.89C299.226 265.468 297.161 267.515 294.286 269.135C290.507 271.265 285.477 272.578 281.125 272.245C278.822 272.068 276.467 271.397 274.25 270.778C272.152 270.193 270.242 269.26 268.383 268.137C266.501 266.835 264.729 265.448 263.219 263.715C260.25 260.307 258.66 256.24 257.985 251.812C257.81 250.664 257.508 249.377 257.623 248.218C257.686 247.577 257.787 247.896 257.408 247.375L251.188 250.087C249.296 250.954 246.472 252.667 244.375 252.421L244.061 251.75C244.532 246.156 251.246 241.331 255.787 238.83C256.581 238.392 258.411 237.962 258.982 237.436C259.559 236.902 260.012 235.724 260.441 235.027C261.282 233.66 262.255 232.286 263.288 231.056C267.724 225.769 274.602 223.927 281.192 223.349ZM279.255 231.527C274.924 232.703 270.207 234.519 267.896 238.67L267.718 239L267.53 239.334C265.373 243.231 264.451 247.974 265.754 252.307C266.889 256.081 270.093 260.427 273.625 262.241C275.299 263.1 277.281 263.666 279.125 264.024L279.426 264.087C280.955 264.381 282.667 264.211 284.226 264.164C288.512 263.419 292.364 261.368 294.941 257.766C297.346 254.405 298.854 249.365 298.037 245.269C297.145 240.802 294.653 236.705 290.775 234.239C289.149 233.204 287.619 232.457 285.75 231.961L285.357 231.848C283.448 231.328 281.222 231.44 279.255 231.527Z"/>
	<path fill="#86C60E" d="M280.29 235.548C283.1 235.451 285.357 235.625 287.882 237.004C290.728 238.559 292.676 241.223 293.618 244.285C294.667 247.7 294.199 251.044 292.509 254.169C290.623 257.657 287.108 259.399 283.472 260.47C280.835 260.545 278.722 260.304 276.375 258.933C273.084 257.01 270.491 253.558 269.637 249.846C268.995 247.056 269.578 243.942 271.136 241.554C273.324 238.201 276.429 236.383 280.29 235.548Z"/>
</svg>
